#!OML:ASF H:\MichaelJackson\Top Level 1\Subject 1\Session 1\male.ASF
:FULLY-SPECIFIED
:DEGREES
216
root 2.46859 14.6098 -2.90229 3.1646 13.6129 -8.97255
lowerback 6.73698 0.602439 3.23155
upperback 2.15343 1.04989 1.42286
thorax -1.52358 0.526046 -0.432001
lowerneck -7.5858 -4.26131 1.75729
upperneck 0.625717 -6.00598 5.67818
head 1.61694 -2.85732 1.26592
rclavicle -1.61016e-014 1.59028e-015
rhumerus -50.9505 -14.983 -48.5845
rradius 31.5087
rwrist 0.553351
rhand -32.1819 -27.7066
rfingers 7.12502
rthumb -5.4244 -57.6172
lclavicle -1.61016e-014 1.59028e-015
lhumerus -45.4181 1.16135 88.6041
lradius 50.6764
lwrist 30.94
lhand -27.0939 8.21169
lfingers 7.12502
lthumb -0.510763 38.1908
rfemur -29.723 -7.19883 26.0627
rtibia 78.4606
rfoot -33.79 -0.284995
rtoes -7.80971
lfemur -39.4043 -6.29663 -11.2073
ltibia 93.0734
lfoot -22.2793 -2.29261
ltoes 3.21739
217
root 2.45033 14.5985 -2.81751 3.24605 12.6659 -9.28796
lowerback 6.87892 0.730487 3.49917
upperback 2.12906 1.24439 1.40648
thorax -1.61512 0.621286 -0.61623
lowerneck -7.64216 -3.98554 1.88516
upperneck 0.973718 -5.66899 5.59819
head 1.726 -2.6798 1.22855
rclavicle -9.93923e-016 2.3059e-014
rhumerus -49.2064 -15.0346 -53.5077
rradius 32.15
rwrist 4.42106
rhand -32.3206 -26.1883
rfingers 7.12502
rthumb -5.55824 -56.0954
lclavicle -9.93923e-016 2.3059e-014
lhumerus -44.8512 -2.35865 92.7481
lradius 53.6588
lwrist 29.9881
lhand -27.2091 7.00546
lfingers 7.12502
lthumb -0.622034 36.9843
rfemur -28.3967 -6.54438 26.6717
rtibia 77.0179
rfoot -35.8717 -1.79819
rtoes -8.54025
lfemur -41.4787 -4.52563 -11.1978
ltibia 95.6673
lfoot -17.2044 -2.5921
ltoes 8.4397
218
root 2.43632 14.5936 -2.7289 3.45287 11.5433 -9.42472
lowerback 6.94638 0.894031 3.61502
upperback 2.04472 1.47288 1.32664
thorax -1.72618 0.732185 -0.78361
lowerneck -7.70107 -3.70616 2.03394
upperneck 1.3836 -5.32981 5.44081
head 1.85349 -2.50123 1.16324
rclavicle -2.90226e-014 -1.74931e-014
rhumerus -47.3122 -14.906 -58.1165
rradius 32.6786
rwrist 8.24735
rhand -32.5155 -25.3559
rfingers 7.12502
rthumb -5.74643 -55.258
lclavicle -2.90226e-014 -1.74931e-014
lhumerus -44.5631 -5.93874 96.2798
lradius 56.9445
lwrist 28.1233
lhand -26.7975 5.56639
lfingers 7.12502
lthumb -0.224555 35.546
rfemur -27.2641 -6.00105 27.0793
rtibia 75.6727
rfoot -37.5372 -3.38986
rtoes -9.6418
lfemur -43.4446 -2.67472 -11.4432
ltibia 97.9274
lfoot -13.0421 -2.5659
ltoes 14.1076
219
root 2.42898 14.6368 -2.6291 3.76323 10.3236 -9.42307
lowerback 6.96312 1.07902 3.60749
upperback 1.91417 1.71963 1.22141
thorax -1.85736 0.851218 -0.909755
lowerneck -7.75994 -3.44116 2.16099
upperneck 1.78335 -5.00347 5.20489
head 1.97765 -2.33187 1.0767
rclavicle 1.92821e-014 2.46493e-014
rhumerus -45.3124 -14.5783 -62.4189
rradius 33.1891
rwrist 11.4154
rhand -32.6741 -25.0735
rfingers 7.12502
rthumb -5.89957 -54.9713
lclavicle 1.92821e-014 2.46493e-014
lhumerus -44.4338 -9.33759 99.2002
lradius 60.3381
lwrist 25.108
lhand -26.1929 3.87395
lfingers 7.12502
lthumb 0.359418 33.8534
rfemur -26.2046 -5.60264 27.3031
rtibia 74.34
rfoot -38.7119 -4.83545
rtoes -10.8718
lfemur -45.0455 -0.889116 -11.8701
ltibia 99.5845
lfoot -10.1897 -2.38193
ltoes 19.5908
220
root 2.42373 14.6418 -2.53816 4.14777 9.06947 -9.34135
lowerback 6.95602 1.278 3.52551
upperback 1.76131 1.97938 1.12649
thorax -1.99983 0.976412 -0.984981
lowerneck -7.837 -3.20591 2.23646
upperneck 2.10407 -4.70438 4.90409
head 2.08074 -2.18084 0.977681
rclavicle 6.36111e-015 1.82882e-014
rhumerus -43.2224 -14.0411 -66.4307
rradius 33.7523
rwrist 13.4078
rhand -32.9131 -25.0288
rfingers 7.12502
rthumb -6.13033 -54.9201
lclavicle 6.36111e-015 1.82882e-014
lhumerus -44.3452 -12.4068 101.536
lradius 63.696
lwrist 20.9585
lhand -25.5928 1.90942
lfingers 7.12502
lthumb 0.939046 31.8871
rfemur -25.6438 -5.34781 27.382
rtibia 73.5152
rfoot -39.4172 -6.00468
rtoes -12.2331
lfemur -46.8518 0.73424 -12.3906
ltibia 101.124
lfoot -8.68863 -2.22172
ltoes 24.2922
221
root 2.42256 14.6493 -2.44898 4.57719 7.86946 -9.2329
lowerback 6.94984 1.47245 3.41435
upperback 1.61141 2.23186 1.0692
thorax -2.14252 1.09826 -1.00509
lowerneck -7.93181 -3.01347 2.24216
upperneck 2.27967 -4.44618 4.57338
head 2.1422 -2.05608 0.880015
rclavicle -2.18663e-015 4.77083e-015
rhumerus -41.0371 -13.3291 -70.1454
rradius 34.3849
rwrist 14.1074
rhand -33.241 -25.0816
rfingers 7.12502
rthumb -6.44689 -54.9635
lclavicle -2.18663e-015 4.77083e-015
lhumerus -44.2082 -15.063 103.317
lradius 66.9343
lwrist 15.8803
lhand -25.2292 -0.223598
lfingers 7.12502
lthumb 1.29016 29.7522
rfemur -25.3989 -5.23395 27.3636
rtibia 73.0388
rfoot -39.6586 -6.7342
rtoes -13.4639
lfemur -48.6491 2.08542 -12.9306
ltibia 102.268
lfoot -8.38514 -2.21613
ltoes 27.6542
222
root 2.42466 14.6579 -2.36322 5.02639 6.80433 -9.13487
lowerback 6.97736 1.63674 3.30517
upperback 1.48013 2.44675 1.06583
thorax -2.28898 1.20181 -0.969
lowerneck -8.04493 -2.85868 2.17505
upperneck 2.27644 -4.22213 4.24319
head 2.1511 -1.95389 0.794277
rclavicle 5.58585e-014 -7.95139e-016
rhumerus -38.7486 -12.4794 -73.5494
rradius 35.0432
rwrist 13.7209
rhand -33.7183 -25.0787
rfingers 7.12502
rthumb -6.90763 -54.946
lclavicle 5.58585e-014 -7.95139e-016
lhumerus -43.9857 -17.2903 104.59
lradius 70.0315
lwrist 10.3626
lhand -25.3596 -2.34012
lfingers 7.12502
lthumb 1.16426 27.6365
rfemur -25.4777 -5.25537 27.2864
rtibia 72.997
rfoot -39.543 -6.99782
rtoes -14.5657
lfemur -50.4803 3.08878 -13.4325
ltibia 103.031
lfoot -8.99316 -2.43377
ltoes 29.4492
223
root 2.42941 14.6671 -2.28125 5.45704 5.90489 -9.05791
lowerback 7.08299 1.75953 3.21584
upperback 1.38256 2.61154 1.10739
thorax -2.44803 1.28072 -0.896272
lowerneck -8.16965 -2.73373 2.06108
upperneck 2.08322 -4.02611 3.93861
head 2.10196 -1.86978 0.724457
rclavicle 1.66979e-014 2.06736e-014
rhumerus -36.3624 -11.5743 -76.6288
rradius 35.669
rwrist 12.808
rhand -34.2463 -25.0699
rfingers 7.12502
rthumb -7.41732 -54.9198
lclavicle 1.66979e-014 2.06736e-014
lhumerus -43.6833 -19.1221 105.398
lradius 73.03
lwrist 5.00745
lhand -25.9521 -4.12229
lfingers 7.12502
lthumb 0.591988 25.8566
rfemur -25.8047 -5.38436 27.1601
rtibia 73.2813
rfoot -39.0642 -6.74383
rtoes -15.4297
lfemur -52.3528 3.72977 -13.8689
ltibia 103.351
lfoot -10.119 -2.87551
ltoes 29.6631
224
root 2.43653 14.6769 -2.20225 5.82063 5.1452 -8.99477
lowerback 7.30488 1.84092 3.14624
upperback 1.34116 2.72684 1.17914
thorax -2.61691 1.33543 -0.803013
lowerneck -8.32009 -2.62391 1.91763
upperneck 1.72921 -3.84398 3.67442
head 2.00675 -1.7944 0.67258
rclavicle 4.57205e-014 3.49861e-014
rhumerus -33.873 -10.6106 -79.4201
rradius 36.1966
rwrist 11.8158
rhand -34.854 -25.0318
rfingers 7.12502
rthumb -8.00384 -54.8602
lclavicle 4.57205e-014 3.49861e-014
lhumerus -43.3199 -20.6368 105.802
lradius 75.9687
lwrist 0.492315
lhand -26.9469 -5.39898
lfingers 7.12502
lthumb -0.368795 24.5804
rfemur -26.2849 -5.57788 26.9744
rtibia 73.8266
rfoot -38.2718 -5.97498
rtoes -15.9373
lfemur -54.2093 4.06814 -14.2372
ltibia 103.207
lfoot -11.4291 -3.50444
ltoes 28.5181
225
root 2.44549 14.6866 -2.1257 6.08165 4.51507 -8.93015
lowerback 7.67365 1.88264 3.10086
upperback 1.36039 2.7957 1.25708
thorax -2.80613 1.36711 -0.717605
lowerneck -8.48699 -2.5187 1.78355
upperneck 1.25052 -3.66724 3.44225
head 1.87467 -1.72216 0.629661
rclavicle -2.72335e-014 -3.4191e-014
rhumerus -31.3171 -9.61179 -81.9571
rradius 36.5754
rwrist 11.2263
rhand -35.4357 -25.135
rfingers 7.12502
rthumb -8.56523 -54.9412
lclavicle -2.72335e-014 -3.4191e-014
lhumerus -42.9433 -21.959 105.875
lradius 78.8745
lwrist -2.62289
lhand -28.1538 -6.09564
lfingers 7.12502
lthumb -1.5345 23.8786
rfemur -26.8256 -5.84807 26.719
rtibia 74.5467
rfoot -37.2237 -4.75165
rtoes -16.0422
lfemur -55.9849 4.15308 -14.5339
ltibia 102.592
lfoot -12.6278 -4.2554
ltoes 26.2124
226
root 2.45641 14.6976 -2.04954 6.20277 3.95049 -8.85635
lowerback 8.20515 1.90347 3.08701
upperback 1.44506 2.84358 1.32036
thorax -3.01668 1.38814 -0.668209
lowerneck -8.66132 -2.40749 1.67734
upperneck 0.700323 -3.48562 3.23518
head 1.72121 -1.64678 0.590592
rclavicle -4.17448e-015 -1.82882e-014
rhumerus -28.7324 -8.54744 -84.2895
rradius 36.7899
rwrist 11.1986
rhand -35.9576 -25.3912
rfingers 7.12502
rthumb -9.06885 -55.1762
lclavicle -4.17448e-015 -1.82882e-014
lhumerus -42.5957 -23.2068 105.676
lradius 81.7567
lwrist -3.95663
lhand -29.5277 -6.22288
lfingers 7.12502
lthumb -2.8613 23.7377
rfemur -27.2991 -6.18943 26.3896
rtibia 75.331
rfoot -35.9902 -3.18705
rtoes -15.6937
lfemur -57.5997 4.10787 -14.7731
ltibia 101.524
lfoot -13.5646 -5.06073
ltoes 23.3685
227
root 2.47013 14.7118 -1.97091 6.14852 3.39425 -8.77563
lowerback 8.90061 1.92363 3.12395
upperback 1.59748 2.89903 1.35817
thorax -3.24365 1.41237 -0.679635
lowerneck -8.82897 -2.28791 1.60668
upperneck 0.13146 -3.29779 3.0357
head 1.5608 -1.56722 0.548453
rclavicle 1.09332e-014 -7.55382e-015
rhumerus -26.16 -7.39796 -86.4408
rradius 36.8445
rwrist 11.696
rhand -36.3988 -25.7864
rfingers 7.12502
rthumb -9.49461 -55.5525
lclavicle 1.09332e-014 -7.55382e-015
lhumerus -42.2955 -24.4499 105.257
lradius 84.595
lwrist -3.37413
lhand -30.8741 -6.00086
lfingers 7.12502
lthumb -4.16155 23.9382
rfemur -27.5711 -6.60836 25.988
rtibia 76.0617
rfoot -34.6684 -1.39428
rtoes -14.8455
lfemur -58.9568 4.04467 -14.9625
ltibia 100.022
lfoot -14.173 -5.84376
ltoes 20.669
228
root 2.48658 14.7278 -1.88862 5.94606 2.77502 -8.71851
lowerback 9.71178 1.97421 3.22897
upperback 1.79877 3.00476 1.37802
thorax -3.47688 1.46068 -0.757937
lowerneck -8.98206 -2.16448 1.56929
upperneck -0.396731 -3.11079 2.82283
head 1.41115 -1.48676 0.496534
rclavicle 1.39149e-015 -2.10712e-014
rhumerus -23.6458 -6.11534 -88.4192
rradius 36.7893
rwrist 12.4656
rhand -36.7958 -26.1943
rfingers 7.12502
rthumb -9.87761 -55.9426
lclavicle 1.39149e-015 -2.10712e-014
lhumerus -42.0296 -25.7044 104.658
lradius 87.3432
lwrist -0.95706
lhand -32.0091 -5.64833
lfingers 7.12502
lthumb -5.25751 24.2665
rfemur -27.5861 -7.07757 25.561
rtibia 76.6375
rfoot -33.3553 0.412545
rtoes -13.6993
lfemur -60.0504 4.08759 -15.0814
ltibia 98.1296
lfoot -14.4877 -6.48476
ltoes 18.4472
